<?xml version="1.0"?>
<svg version="1.1" xmlns="http://www.w3.org/2000/svg" width="700" height="150" style=""><path fill="#ffd700" d="M21,88.4l0.8,4.2s1.8,1,4.4,1c2.92,0,6.12-1.44,6.12-4.28c0-6.16-14.44-3.6-14.44-13.16c0-5.6,4.48-7.96,9.48-7.96c3.8,0,8.44,1.6,8.44,1.6l-0.2,6.8l-2.6,0l-1.36-4.28s-2.04-0.72-4.24-0.72c-3.6,0-5.32,1.88-5.32,3.88c0,6.08,14.4,3.76,14.4,12.76c0,6-4.84,8.76-10.44,8.76c-4.2,0-8.24-1.6-8.24-1.6l0-7l3.2,0z M53.424,75c6,0,9.4,4.2,9.4,10.6c0,6.8-4,11.4-10,11.4s-9.6-3.6-9.6-10.8c0-6.8,4.2-11.2,10.2-11.2z M53.224,78.2c-4,0-5.8,2.6-5.8,7.8c0,4.8,1.6,7.8,5.6,7.8s5.6-2.8,5.6-8c0-4.4-1.4-7.6-5.4-7.6z M72.568,75.6l0-2.4c0-4.8,2.6-7.8,7.4-7.8c3.8,0,6,1.4,6,1.4l0,5l-2.8,0l-0.6-3.2s-1-0.2-2.4-0.2c-2.8,0-3.6,1.6-3.6,4l0,3.2l5.28,0l-0.12,3l-5.16,0l0,14.8l4,1l0,2.2l-11.4,0l0-2.2l3.4-1l0-14.8l-3.6,0l0-2.6z M101.112,75.6l0,3l-5.8,0l0,12.84c0,1.84,0.88,2.44,2,2.44c0.96,0,2.08-0.44,3.12-1l1.08,2.12c-1.8,1.32-3.6,2-5.6,2c-2.4,0-4.6-1.32-4.6-5.8l0-12.6l-4,0l0-2.6l4-0.4l0-5.04l4-0.8l0,5.84l5.8,0z M127.456,77.8l-3.88,0.56s1.08,1.44,1.08,4.04c0,5.4-3.6,7.8-8.8,7.8c-1.8,0-3-0.36-3-0.36l-0.2,3.76l6.2,0c5.2,0,8,2,8,5.8c0,4.4-3.4,7.2-10.4,7.2c-5.6,0-9.6-1.4-9.6-5.8c0-3.6,4.2-5,4.2-5s-2.4-0.2-2.4-2.28c0-1.32,2.08-4.52,2.08-4.52s-3.08-1.4-3.08-6.2c0-5.2,3.6-7.8,8.8-7.8c2.6,0,4,0.76,4,0.76l7-0.16l0,2.2z M116.256,77.8c-3.2,0-4.6,1.6-4.6,4.8c0,2.8,1.4,4.8,4.4,4.8c3.2,0,4.6-1.4,4.6-4.8c0-3-1.4-4.8-4.4-4.8z M117.856,96.6l-4.4,0s-2.6,1.2-2.6,3.6c0,2.8,2.4,3.4,6.2,3.4c4,0,6-1.2,6-3.8s-2-3.2-5.2-3.2z M134.4,81.6l-0.2-5s4.4-1.6,7.8-1.6c4.64,0,7.4,1.6,7.4,6.2l0,12.2l3.2,0.8l0,2.2l-6.2,0.2l-0.84-2.8c-1.36,1.36-3.76,3.2-6.56,3.2c-3.8,0-6-2.2-6-6c0-4.6,3.6-6.2,9.2-6.2l3.2,0l0-3.2c0-2.4-1.4-3.6-3.8-3.6s-4.04,0.6-4.04,0.6l-0.56,3l-2.6,0z M145.4,87.4l-2.8,0c-4,0-5.52,1-5.52,3.4c0,1.8,1.12,3,2.92,3c3,0,5.4-3.2,5.4-3.2l0-3.2z M171.144,75.6l0,3l-5.8,0l0,12.84c0,1.84,0.88,2.44,2,2.44c0.96,0,2.08-0.44,3.12-1l1.08,2.12c-1.8,1.32-3.6,2-5.6,2c-2.4,0-4.6-1.32-4.6-5.8l0-12.6l-4,0l0-2.6l4-0.4l0-5.04l4-0.8l0,5.84l5.8,0z M194.688,86.6l-13.8,0c0,4.4,2.36,7.2,5.8,7.2c4,0,6.72-2.2,6.72-2.2l1.4,2.08s-3.72,3.32-8.52,3.32c-6.4,0-9.6-4.2-9.6-10.8c0-6.4,4-11.2,9.8-11.2s8.4,3.4,8.4,9.4c0,1-0.2,2.12-0.2,2.2z M181.048,83.6l9.6,0c0-3-1.16-5.48-4.36-5.48s-5,2.48-5.24,5.48z M213.176,96.6l0-2.4l3.4-0.8l0-21.6l-3.4-0.8l0-2.2l11.4-0.2l0,2.4l-3.8,0.8l0,8.8l3.68,0l6.92-11.8l6.6-0.2l0,2.4l-3.96,0.8l-6.08,10.12l8.24,11.48l3.4,0.8l0,2.4l-11.4,0l0-2.4l3.4-0.8l-6.88-9.6l-3.92,0l0,9.6l3.8,0.8l0,2.4l-11.4,0z M261.32,86.6l-13.8,0c0,4.4,2.36,7.2,5.8,7.2c4,0,6.72-2.2,6.72-2.2l1.4,2.08s-3.72,3.32-8.52,3.32c-6.4,0-9.6-4.2-9.6-10.8c0-6.4,4-11.2,9.8-11.2s8.4,3.4,8.4,9.4c0,1-0.2,2.12-0.2,2.2z M247.68,83.6l9.6,0c0-3-1.16-5.48-4.36-5.48s-5,2.48-5.24,5.48z M274.264,75.4l0.36,2.84c0.96-0.84,4.12-3.24,7.44-3.24c4.4,0,6.4,2.8,6.4,7.2l0,11.2l3,1l0,2.2l-9.6,0l0-2.2l2.6-1l0-10.8c0-2.8-1-4.2-3.6-4.2c-3.4,0-5.8,3.2-5.8,3.2l0,11.8l2.6,1l0,2.2l-10,0l0-2.2l3.4-1l0-14.8l-3.4-0.8l0-2.2z M302.408,78.2l4.8,14l4.4-13.8l-2.8-0.6l0-2.2l9.48-0.2l0,2.4l-2.6,0.4l-5.68,15.84c-2.12,5.56-4.2,12.16-10.8,12.16c-1,0-2.56-0.2-2.56-0.2l0.36-2.8l2,0c2.8,0,4.6-2.64,6.36-6.52l-7.16-18.28l-2.4-0.6l0-2.2l9.4-0.2l0,2.4z M324.432,81.6l-0.2-5s4.4-1.6,7.8-1.6c4.64,0,7.4,1.6,7.4,6.2l0,12.2l3.2,0.8l0,2.2l-6.2,0.2l-0.84-2.8c-1.36,1.36-3.76,3.2-6.56,3.2c-3.8,0-6-2.2-6-6c0-4.6,3.6-6.2,9.2-6.2l3.2,0l0-3.2c0-2.4-1.4-3.6-3.8-3.6s-4.04,0.6-4.04,0.6l-0.56,3l-2.6,0z M335.432,87.4l-2.8,0c-4,0-5.52,1-5.52,3.4c0,1.8,1.12,3,2.92,3c3,0,5.4-3.2,5.4-3.2l0-3.2z"/><path fill="#ffaa00" d="M352.476,85.8l0-1.2l1.7-0.4l0-10.8l-1.7-0.4l0-1.1l5.5-0.1l0,1.2l-1.7,0.4l0,10.8l1.7,0.4l0,1.2l-5.5,0z M362.848,85.8l0-1.2l2-0.4l0-10.8l-2.6,0l-0.5,2l-1.3,0l0-3.6l10.9,0l0,3.6l-1.3,0l-0.5-2l-2.6,0l0,10.8l2,0.4l0,1.2l-6.1,0z M381.892,81.7l0.4,2.1s0.9,0.5,2.2,0.5c1.46,0,3.06-0.72,3.06-2.14c0-3.08-7.22-1.8-7.22-6.58c0-2.8,2.24-3.98,4.74-3.98c1.9,0,4.22,0.8,4.22,0.8l-0.1,3.4l-1.3,0l-0.68-2.14s-1.02-0.36-2.12-0.36c-1.8,0-2.66,0.94-2.66,1.94c0,3.04,7.2,1.88,7.2,6.38c0,3-2.42,4.38-5.22,4.38c-2.1,0-4.12-0.8-4.12-0.8l0-3.5l1.6,0z M398.104,75c3,0,4.7,2.1,4.7,5.3c0,3.4-2,5.7-5,5.7s-4.8-1.8-4.8-5.4c0-3.4,2.1-5.6,5.1-5.6z M398.004,76.6c-2,0-2.9,1.3-2.9,3.9c0,2.4,0.8,3.9,2.8,3.9s2.8-1.4,2.8-4c0-2.2-0.7-3.8-2.7-3.8z M411.016,84.7l0,1.1l-5.54,0l0-1.1l1.7-0.5l0-12.2l-1.7-0.4l0-1.1l3.74-0.1l0,13.8z M424.988,84.6l0,1.1l-3.3,0.1l-0.2-1.4c-0.48,0.42-2.06,1.6-3.7,1.6c-2.2,0-3.2-1.38-3.2-3.58l0-5.62l-1.7-0.4l0-1.1l3.7-0.1l0,7.02c0,1.4,0.5,2.08,1.8,2.08c1.7,0,2.9-1.58,2.9-1.58l0-5.92l-1.7-0.4l0-1.1l3.7-0.1l0,9z M434.16,75.3l0,1.5l-2.9,0l0,6.42c0,0.92,0.44,1.22,1,1.22c0.48,0,1.04-0.22,1.56-0.5l0.54,1.06c-0.9,0.66-1.8,1-2.8,1c-1.2,0-2.3-0.66-2.3-2.9l0-6.3l-2,0l0-1.3l2-0.2l0-2.52l2-0.4l0,2.92l2.9,0z M438.232,71.9c0-0.9,0.6-1.4,1.3-1.4c0.8,0,1.3,0.4,1.3,1.4c0,0.9-0.7,1.4-1.3,1.4c-0.8,0-1.3-0.5-1.3-1.4z M442.132,84.7l0,1.1l-5.2,0l0-1.1l1.7-0.5l0-7.4l-1.7-0.4l0-1.1l3.7-0.1l0,9z M450.104,75c3,0,4.7,2.1,4.7,5.3c0,3.4-2,5.7-5,5.7s-4.8-1.8-4.8-5.4c0-3.4,2.1-5.6,5.1-5.6z M450.004,76.6c-2,0-2.9,1.3-2.9,3.9c0,2.4,0.8,3.9,2.8,3.9s2.8-1.4,2.8-4c0-2.2-0.7-3.8-2.7-3.8z M461.076,75.2l0.18,1.42c0.48-0.42,2.06-1.62,3.72-1.62c2.2,0,3.2,1.4,3.2,3.6l0,5.6l1.5,0.5l0,1.1l-4.8,0l0-1.1l1.3-0.5l0-5.4c0-1.4-0.5-2.1-1.8-2.1c-1.7,0-2.9,1.6-2.9,1.6l0,5.9l1.3,0.5l0,1.1l-5,0l0-1.1l1.7-0.5l0-7.4l-1.7-0.4l0-1.1z M473.968,82.6l0.22,1.72s0.6,0.18,1.68,0.18c1.2,0,2.26-0.34,2.26-1.58c0-2.16-5.58-1.16-5.58-4.8c0-2.08,1.6-3.12,3.66-3.12c1.58,0,3.42,0.6,3.42,0.6l-0.06,2.7l-1.3,0l-0.32-1.56s-0.62-0.24-1.62-0.24c-1.02,0-1.78,0.32-1.78,1.34c0,2.14,5.58,1.32,5.58,4.74c0,2.3-2,3.42-4.4,3.42c-1.84,0-3.16-0.44-3.16-0.44l0-2.96l1.4,0z"/></svg>
